<?xml version="1.0" encoding="utf-8"?>
<!-- Generator: Adobe Illustrator 16.0.0, SVG Export Plug-In . SVG Version: 6.00 Build 0)  -->
<!DOCTYPE svg PUBLIC "-//W3C//DTD SVG 1.1//EN" "http://www.w3.org/Graphics/SVG/1.1/DTD/svg11.dtd">
<svg version="1.1" xmlns="http://www.w3.org/2000/svg" xmlns:xlink="http://www.w3.org/1999/xlink" x="0px" y="0px" width="150px"
	 height="150px" viewBox="0 0 150 150" enable-background="new 0 0 150 150" xml:space="preserve">
<g id="Layer_2">
</g>
<g id="Layer_1">
	<circle fill="#363636" cx="75" cy="75" r="75"/>
	<g>
		<path fill="#FFFFFF" d="M107.428,65.726c-7.328,0-7.092-6.147-7.092-6.147c-0.395-4.964-0.709-8.195-5.674-14.657
			c-5.006-6.517-13.632-8.747-17.021-8.747c-2.601,0-2.916,0-14.184,0c-11.269,0-16.391,5.516-19.621,8.747
			c-3.231,3.231-5.91,10.717-5.91,16.076c0,5.358,0,8.274,0,26.713c0,18.439,16.706,25.531,23.167,25.531c5.91,0,14.814,0,26.24,0
			c11.426,0,17.1-3.939,21.513-8.746c4.413-4.808,5.91-11.899,5.91-17.73c0-5.832,0-11.189,0-15.366
			C114.757,67.853,114.284,65.726,107.428,65.726z M62.225,56.033h14.286c2.714,0,4.913,2.223,4.913,4.965
			c0,2.741-2.199,4.964-4.913,4.964H62.225c-2.714,0-4.914-2.223-4.914-4.964C57.311,58.256,59.511,56.033,62.225,56.033z
			 M90.844,93.622H62.312c-2.5,0-4.528-2.064-4.528-4.611c0-2.545,2.028-4.609,4.528-4.609h28.532c2.5,0,4.528,2.064,4.528,4.609
			C95.372,91.558,93.344,93.622,90.844,93.622z"/>
	</g>
</g>
</svg>
